<svg data-v-0dd9719b="" version="1.0" xmlns="http://www.w3.org/2000/svg" xmlns:xlink="http://www.w3.org/1999/xlink" width="100%" height="100%" viewBox="0 0 340.000000 250.000000" preserveAspectRatio="xMidYMid meet" color-interpolation-filters="sRGB" style="margin: auto;"> <rect data-v-0dd9719b="" x="0" y="0" width="100%" height="100%" fill="#fff" fill-opacity="1" class="background"></rect> <rect data-v-0dd9719b="" x="0" y="0" width="100%" height="100%" fill="url(#watermark)" fill-opacity="1" class="watermarklayer"></rect> <g data-v-0dd9719b="" fill="#333" class="icon-text-wrapper icon-svg-group iconsvg" transform="translate(47.63999938964844,94.99069595336914)"><g class="iconsvg-imagesvg" transform="translate(0,0)"><g><rect fill="#333" fill-opacity="0" stroke-width="2" x="0" y="0" width="60" height="60.01860576778802" class="image-rect"></rect> <svg x="0" y="0" width="60" height="60.01860576778802" filtersec="colorsb4815978403" class="image-svg-svg primary" style="overflow: visible;"><svg xmlns="http://www.w3.org/2000/svg" viewBox="-0.0004231940256431699 -0.00042338765342719853 96.32041931152344 96.35041809082031"><path d="M46.51 80.55a32.43 32.43 0 0 1 0-64.78V0h-.38a1.79 1.79 0 0 0-1.77 1.53l-.26 1.82a4.71 4.71 0 0 1-3.75 3.94 41.1 41.1 0 0 0-5.86 1.57 4.7 4.7 0 0 1-5.22-1.54l-1.13-1.44a1.78 1.78 0 0 0-2.3-.44l-3.52 2a1.78 1.78 0 0 0-.76 2.21l.68 1.71A4.67 4.67 0 0 1 21 16.67 43.43 43.43 0 0 0 16.67 21a4.67 4.67 0 0 1-5.28 1.28l-1.71-.68a1.78 1.78 0 0 0-2.21.76l-2 3.52a1.78 1.78 0 0 0 .44 2.3l1.44 1.13a4.7 4.7 0 0 1 1.54 5.22 41.1 41.1 0 0 0-1.57 5.86 4.71 4.71 0 0 1-3.97 3.71l-1.82.26A1.79 1.79 0 0 0 0 46.13v4.06A1.79 1.79 0 0 0 1.53 52l1.82.26A4.69 4.69 0 0 1 7.29 56a41.45 41.45 0 0 0 1.57 5.86 4.7 4.7 0 0 1-1.54 5.22l-1.44 1.1a1.78 1.78 0 0 0-.44 2.3l2 3.51a1.77 1.77 0 0 0 2.21.77l1.71-.68a4.68 4.68 0 0 1 5.28 1.27 42.48 42.48 0 0 0 4.36 4.3 4.67 4.67 0 0 1 1.28 5.28l-.68 1.71a1.78 1.78 0 0 0 .76 2.21l3.52 2a1.78 1.78 0 0 0 2.3-.44L29.27 89a4.7 4.7 0 0 1 5.22-1.54A41.1 41.1 0 0 0 40.35 89a4.69 4.69 0 0 1 3.75 4l.26 1.81a1.8 1.8 0 0 0 1.77 1.54h.38z" fill="#0087ff"></path><path d="M94.78 44.36L93 44.1a4.69 4.69 0 0 1-4-3.75 41.1 41.1 0 0 0-1.57-5.86A4.69 4.69 0 0 1 89 29.27l1.44-1.13a1.79 1.79 0 0 0 .44-2.3l-2-3.52a1.78 1.78 0 0 0-2.21-.76l-1.71.68A4.68 4.68 0 0 1 79.65 21a42.48 42.48 0 0 0-4.3-4.29 4.68 4.68 0 0 1-1.27-5.28l.68-1.71A1.78 1.78 0 0 0 74 7.47l-3.52-2a1.78 1.78 0 0 0-2.3.44l-1.13 1.41a4.7 4.7 0 0 1-5.22 1.54A41.45 41.45 0 0 0 56 7.29a4.69 4.69 0 0 1-3.75-3.94L52 1.53A1.79 1.79 0 0 0 50.19 0h-.38v15.77a32.43 32.43 0 0 1 0 64.78v15.77h.38A1.8 1.8 0 0 0 52 94.78l.22-1.78A4.66 4.66 0 0 1 56 89a41.45 41.45 0 0 0 5.86-1.57A4.69 4.69 0 0 1 67.05 89l1.13 1.44a1.79 1.79 0 0 0 2.3.44l3.52-2a1.78 1.78 0 0 0 .76-2.21l-.68-1.71a4.68 4.68 0 0 1 1.27-5.28 41.56 41.56 0 0 0 4.3-4.3 4.68 4.68 0 0 1 5.28-1.27l1.71.68a1.78 1.78 0 0 0 2.21-.79l2-3.51a1.78 1.78 0 0 0-.44-2.3L89 67.05a4.7 4.7 0 0 1-1.54-5.22A41.45 41.45 0 0 0 89 56a4.66 4.66 0 0 1 4-3.78l1.78-.22a1.8 1.8 0 0 0 1.54-1.77v-4.1a1.8 1.8 0 0 0-1.54-1.77z" fill="#ff006f"></path><path d="M49.81 21.19v13.93h8a3.06 3.06 0 1 1 0 1.83h-8v10.3h12.68a3.05 3.05 0 1 1 0 1.82H49.81v10.3h8a3.06 3.06 0 1 1 0 1.82h-8v13.94a27 27 0 0 0 0-53.94zM21.13 48.16a27 27 0 0 0 25.38 27V21.19a27 27 0 0 0-25.38 26.97zm22.18-13h-4.85a3.06 3.06 0 1 0 0 1.83h4.85v10.3h-9.49a3.05 3.05 0 1 0 0 1.82h9.49v10.3h-4.85a3.06 3.06 0 1 0 0 1.83h4.85v10.24a23.82 23.82 0 0 1 0-46.64z" fill="#2a3294"></path></svg></svg> <!----></g></g> <g transform="translate(67,5.588054656982422)"><g data-gra="path-name" fill-rule="" class="tp-name iconsvg-namesvg" transform="translate(0,0)"><g transform="scale(1)"><g><path d="M15.68-11L15.68-11 21.09-10.55Q20.95-9.74 19.9-9.63L19.9-9.63Q19.58-5.38 18.35-3.45L18.35-3.45Q30.02-2.95 33.12-0.14L33.12-0.14Q34.49 1.13 33.61 2.21L33.61 2.21Q32.8 3.23 31.18 3.02L31.18 3.02Q30.38 2.95 29.67 2.46L29.67 2.46Q24.89-1.09 17.96-2.92L17.96-2.92Q16.31-0.81 12.48 0.7 8.65 2.21 1.44 3.23L1.44 3.23 1.2 2.74Q3.55 2.21 5.45 1.62 7.35 1.02 8.75 0.42 10.16-0.18 11.25-0.9 12.34-1.62 13.06-2.27 13.78-2.92 14.27-3.8 14.77-4.68 15.03-5.36 15.29-6.05 15.43-7.08 15.57-8.12 15.61-8.89 15.64-9.67 15.68-10.83L15.68-10.83Q15.68-10.93 15.68-11ZM26.02-3.45L26.02-3.45 25.31-3.45 25.31-12.13 10.41-12.13 10.41-3.45Q10.41-3.13 9.18-2.64 7.95-2.14 6.71-2.14L6.71-2.14 6.15-2.14 6.15-14.91 10.69-13.15 25-13.15 26.82-15.08 30.59-12.23Q30.23-11.81 29.5-11.67L29.5-11.67 29.5-4.61Q29.46-4.32 28.23-3.88 27-3.45 26.02-3.45ZM9.67-25.35L9.67-21.34 15.64-21.34 15.64-25.35 9.67-25.35ZM25.77-21.34L25.77-25.35 19.83-25.35 19.83-21.34 25.77-21.34ZM19.83-16.95L28.62-16.95 30.97-19.72Q33.57-17.86 35.16-16.49L35.16-16.49Q35.02-15.93 34.21-15.93L34.21-15.93 1.3-15.93 1.05-16.95 15.64-16.95 15.64-20.32 9.67-20.32 9.67-19.51Q9.67-19.34 9.16-19.07 8.65-18.81 7.8-18.58 6.96-18.35 6.19-18.35L6.19-18.35 5.66-18.35 5.66-28.05 9.98-26.37 15.64-26.37 15.64-30.55 20.74-30.13Q20.64-29.5 19.83-29.36L19.83-29.36 19.83-26.37 25.45-26.37 27.28-28.23 31.01-25.49Q30.69-25.07 29.88-24.89L29.88-24.89 29.88-19.76Q29.85-19.51 28.63-19.07 27.42-18.63 26.51-18.63L26.51-18.63 25.77-18.63 25.77-20.32 19.83-20.32 19.83-16.95ZM40.82-21.83L40.82-21.83 41.34-21.87Q42.43-19.34 42.64-17.1 42.86-14.87 42.43-13.46 42.01-12.06 41.17-11.07L41.17-11.07Q40.32-10.13 39.09-10.16 37.86-10.2 37.27-11.18L37.27-11.18Q36.28-12.97 38.18-14.38L38.18-14.38Q39.34-15.36 40.17-17.46 40.99-19.55 40.82-21.83ZM43.88-15.36L43.88-29.53 49.25-29Q49.08-28.16 47.92-27.98L47.92-27.98 47.92-15.33Q47.88-12.27 47.41-9.72 46.93-7.17 45.84-4.69 44.75-2.21 42.73-0.21 40.71 1.79 37.79 3.23L37.79 3.23 37.48 2.88Q41.1-0.42 42.49-4.92 43.88-9.42 43.88-15.36L43.88-15.36ZM63.91-14.59L63.91-29.6 69.33-29Q69.22-28.2 68.03-28.02L68.03-28.02 68.03 1.69Q68.03 2.07 66.9 2.6 65.78 3.13 64.69 3.13L64.69 3.13 63.91 3.13 63.91-12.97Q63.6-11.6 62.47-11.21 61.35-10.83 60.08-11.99L60.08-11.99Q60.12-15.5 57.66-19.97L57.66-19.97 57.66 1.2Q57.66 1.55 56.55 2.07 55.44 2.6 54.39 2.6L54.39 2.6 53.61 2.6 53.61-12.52Q53.09-11.46 52.05-11.3 51.01-11.14 49.89-12.2L49.89-12.2Q50.1-15.82 48.06-20.07L48.06-20.07 48.41-20.21Q52.59-18.28 53.61-15.54L53.61-15.54 53.61-29.04 58.92-28.48Q58.82-27.63 57.66-27.46L57.66-27.46 57.66-20.14 57.97-20.32Q60.71-19.13 62.16-17.61 63.6-16.1 63.91-14.59L63.91-14.59ZM89.44-26.54L89.44-26.54 89.72-26.79Q94.75-26.05 96.08-23.52L96.08-23.52Q96.89-21.97 95.94-20.78L95.94-20.78Q95.06-19.65 93.59-20.21L93.59-20.21Q93.2-20.36 92.81-20.64L92.81-20.64Q92.6-22.11 91.62-23.75 90.63-25.38 89.44-26.54ZM88.73-17.65L88.73-17.65 88.98-17.89Q94.11-17.33 95.48-14.84L95.48-14.84Q96.33-13.29 95.38-12.13L95.38-12.13Q94.46-10.97 92.95-11.53L92.95-11.53Q92.57-11.67 92.21-11.92L92.21-11.92Q91.93-13.36 90.93-14.96 89.93-16.56 88.73-17.65ZM88.24-18.28L83.21-18.28 83.21-16.28Q87.54-14.84 88.42-12.34L88.42-12.34Q88.91-10.83 87.93-9.91L87.93-9.91Q86.94-9.04 85.61-9.88L85.61-9.88Q85.43-9.98 85.29-10.13L85.29-10.13Q84.97-12.3 83.21-15.19L83.21-15.19 83.21 2.04Q83.21 2.18 82.83 2.46 82.44 2.74 81.62 2.99 80.79 3.23 79.88 3.23L79.88 3.23 79.14 3.23 79.14-10.13Q76.61-6.47 73.09-3.8L73.09-3.8 72.63-4.18Q76.61-9.39 78.61-18.28L78.61-18.28 73.72-18.28 73.44-19.3 79.14-19.3 79.14-24.96Q75.45-24.47 73.34-24.36L73.34-24.36 73.2-24.86Q76.11-25.88 79.26-27.49 82.41-29.11 84.23-30.52L84.23-30.52 88.84-26.47Q88.1-25.88 86.48-26.4L86.48-26.4Q84.48-25.88 83.21-25.63L83.21-25.63 83.21-19.3 83.81-19.3 85.71-22.11Q87.89-20.18 89.19-18.88L89.19-18.88Q89.02-18.28 88.24-18.28L88.24-18.28ZM102.2-9.49L102.48-9.56 104.17-12.94Q106.38-11.29 107.68-10.13L107.68-10.13Q107.68-9.88 107.44-9.67 107.19-9.46 106.88-9.39L106.88-9.39 102.2-8.51 102.2 1.69Q102.2 2.04 101.09 2.55 99.98 3.06 98.89 3.06L98.89 3.06 98.09 3.06 98.09-7.7 86.63-5.52 86.1-6.47 98.09-8.75 98.09-29.71 103.5-29.14Q103.39-28.3 102.2-28.13L102.2-28.13 102.2-9.49ZM111.34 1.72L111.34 1.72 109.37-3.23Q114.5-4.18 122.77-6.33L122.77-6.33 122.87-5.98Q118.05-2.46 112.29 0.81L112.29 0.81Q112.04 1.55 111.34 1.72ZM137.74-9.98L137.74-22.43 134.4-22.43Q134.23-18.14 133.52-15.22L133.52-15.22Q137.29-12.87 137.74-9.98L137.74-9.98ZM130.75-22.43L127.41-22.43 127.41-6.33Q129.3-9.32 129.99-13.11 130.68-16.91 130.75-22.43L130.75-22.43ZM137.39-23.45L139.15-25.52 143.05-22.54Q142.66-22.01 141.57-21.8L141.57-21.8 141.57-1.69Q141.57 0.56 140.64 1.63 139.71 2.71 136.69 2.99L136.69 2.99Q136.58 0.91 136.02 0.18L136.02 0.18Q135.21-0.81 133.24-1.13L133.24-1.13 133.24-1.65Q136.37-1.44 137-1.44L137-1.44Q137.74-1.44 137.74-2.11L137.74-2.11 137.74-8.79Q137.53-7.56 136.65-7.19 135.77-6.82 134.75-7.73L134.75-7.73Q134.79-10.44 133.14-13.71L133.14-13.71Q131.7-8.68 127.65-5.52L127.65-5.52 127.41-5.84 127.41 1.86Q127.41 2.25 126.37 2.74 125.33 3.23 124.17 3.23L124.17 3.23 123.54 3.23 123.54-21.2Q123.12-20.85 122.38-20.95L122.38-20.95Q120.8-18.77 118.07-16.08 115.35-13.39 112.64-11.36L112.64-11.36Q115.45-11.64 121.82-12.45L121.82-12.45 121.89-11.99Q116.72-9.32 111.94-7.38L111.94-7.38Q111.59-6.82 111.02-6.57L111.02-6.57 109.16-11.14Q110.11-11.39 110.46-11.67L110.46-11.67Q112.78-13.54 115.73-18.07L115.73-18.07Q112.64-16.66 111.73-16.28L111.73-16.28Q111.3-15.75 110.95-15.61L110.95-15.61 109.13-20.21Q109.93-20.43 110.21-20.64L110.21-20.64Q111.55-21.87 113.15-25.01 114.75-28.16 115.31-30.38L115.31-30.38 120.52-28.34Q120.23-27.63 119.29-27.67L119.29-27.67Q117.98-25.84 115.96-23.71 113.94-21.59 111.97-20.11L111.97-20.11Q112.11-20.11 117.11-20.39L117.11-20.39Q118.3-22.46 118.9-24.15L118.9-24.15 123.54-21.55 123.54-25.17 127.58-23.45 130.75-23.45 130.75-30.66 135.81-30.2Q135.63-29.36 134.54-29.21L134.54-29.21Q134.44-23.66 134.44-23.45L134.44-23.45 137.39-23.45ZM155.78-4.75L155.78-0.32 168.12-0.32 168.12-4.75 155.78-4.75ZM168.12-5.8L168.12-9.95 155.78-9.95 155.78-5.8 168.12-5.8ZM156.06-10.93L167.77-10.93 169.7-13.11 173.81-10.02Q173.32-9.39 172.37-9.21L172.37-9.21 172.37 1.97Q172.34 2.18 171.07 2.58 169.8 2.99 168.86 2.99L168.86 2.99 168.12 2.99 168.12 0.67 155.78 0.67 155.78 1.86Q155.78 2.04 155.27 2.36 154.76 2.67 153.9 2.92 153.04 3.16 152.23 3.16L152.23 3.16 151.63 3.16 151.63-12.69 156.06-10.93ZM163.51-23.8L160.21-23.8 160.21-14.87 163.51-14.87 163.51-23.8ZM167.48-14.87L172.58-14.87 174.8-17.68Q177.22-15.79 178.77-14.45L178.77-14.45Q178.59-13.85 177.79-13.85L177.79-13.85 145.58-13.85 145.27-14.87 156.3-14.87 156.3-23.8 147.34-23.8 147.06-24.86 156.52-24.86Q156.45-24.89 156.02-25.14L156.02-25.14Q155.81-26.44 155.06-27.83 154.3-29.21 153.39-30.27L153.39-30.27 153.67-30.48Q156.8-30.16 158.31-28.97 159.82-27.77 159.71-26.6 159.61-25.42 158.59-24.86L158.59-24.86 163.93-24.86Q165.38-28.9 165.8-30.66L165.8-30.66 171.11-29.14Q170.86-28.44 169.73-28.48L169.73-28.48Q167.41-26.4 165.16-24.86L165.16-24.86 171.42-24.86 173.6-27.49Q175.99-25.66 177.5-24.36L177.5-24.36Q177.36-23.8 176.52-23.8L176.52-23.8 167.48-23.8 167.48-14.87ZM149.41-22.61L149.41-22.61 149.73-22.82Q154.09-21.66 154.97-19.2L154.97-19.2Q155.57-17.65 154.51-16.59L154.51-16.59Q153.46-15.54 152.05-16.28L152.05-16.28Q151.73-16.45 151.42-16.73L151.42-16.73Q151.38-18.18 150.8-19.79 150.22-21.41 149.41-22.61ZM168.64-15.93L168.64-15.93 168.19-16.24Q169.28-18.46 170.82-22.99L170.82-22.99 175.71-20.85Q175.39-20.14 174.3-20.29L174.3-20.29Q171.49-17.75 168.64-15.93Z" transform="translate(-1.0499999523162842, 30.65999984741211)"></path></g> <!----> <!----> <!----> <!----> <!----> <!----> <!----></g></g> <g data-gra="path-slogan" fill-rule="" class="tp-slogan iconsvg-slogansvg" fill="#333" transform="translate(5,39.88999938964844)"><rect x="0" height="1" y="3.9750003814697266" width="27.794445037841797"></rect> <rect height="1" y="3.9750003814697266" width="27.794445037841797" x="139.92555618286133"></rect> <g transform="translate(30.794445037841797,0)"><g transform="scale(1)"><path d="M7.31-3.61L4.69-3.61L4.69-4.59L8.44-4.59L8.44 0L7.69 0L7.41-1.08Q6.42 0.09 4.59 0.14L4.59 0.14Q2.86 0.14 1.92-0.75L1.92-0.75Q0.52-2.06 0.56-4.36L0.56-4.36Q0.89-8.63 4.64-8.81L4.64-8.81Q7.83-8.63 8.30-6L8.30-6L7.17-6Q6.70-7.78 4.59-7.83L4.59-7.83Q1.92-7.64 1.78-4.31L1.78-4.31Q1.78-0.75 4.64-0.75L4.64-0.75Q5.67-0.75 6.42-1.31L6.42-1.31Q7.36-2.06 7.31-3.61L7.31-3.61ZM15.89-3.19L15.89-8.58L17.06-8.58L17.06-3.05Q16.92 0.05 13.55 0.14L13.55 0.14Q10.41 0.05 10.27-2.86L10.27-2.86L10.27-8.58L11.44-8.58L11.44-3.19Q11.48-0.84 13.59-0.80L13.59-0.80Q15.89-0.84 15.89-3.19L15.89-3.19ZM19.03-8.58L20.20-8.58L20.20 0L19.03 0L19.03-8.58ZM23.02-1.03L28.31-1.03L28.31 0L21.56 0L21.56-0.94L26.81-7.59L21.94-7.59L21.94-8.58L28.31-8.58L28.31-7.59L23.02-1.03ZM30.61-5.06L35.11-5.06L35.11-8.58L36.28-8.58L36.28 0L35.11 0L35.11-3.98L30.61-3.98L30.61 0L29.44 0L29.44-8.58L30.61-8.58L30.61-5.06ZM44.86-4.27L44.86-4.27Q44.67-7.64 41.86-7.83L41.86-7.83Q39-7.69 38.86-4.27L38.86-4.27Q39-0.94 41.86-0.80L41.86-0.80Q44.67-0.98 44.86-4.27ZM46.03-4.27L46.03-4.27Q45.75 0 41.86 0.14L41.86 0.14Q37.92 0 37.64-4.27L37.64-4.27Q37.88-8.72 41.86-8.81L41.86-8.81Q45.75-8.67 46.03-4.27ZM53.06-3.19L53.06-8.58L54.23-8.58L54.23-3.05Q54.09 0.05 50.72 0.14L50.72 0.14Q47.58 0.05 47.44-2.86L47.44-2.86L47.44-8.58L48.61-8.58L48.61-3.19Q48.66-0.84 50.77-0.80L50.77-0.80Q53.06-0.84 53.06-3.19L53.06-3.19ZM61.88-4.31L60.52-3.05L60.52 0L59.34 0L59.34-8.58L60.52-8.58L60.52-4.41L64.69-8.58L66.33-8.58L62.72-5.11L66.42 0L64.88 0L61.88-4.31ZM68.63-1.03L73.78-1.03L73.78 0L67.45 0L67.45-8.58L73.69-8.58L73.69-7.59L68.63-7.59L68.63-4.92L73.31-4.92L73.31-3.89L68.63-3.89L68.63-1.03ZM76.69-8.58L81-1.64L81-8.58L82.13-8.58L82.13 0L80.81 0L76.45-6.94L76.41-6.94L76.41 0L75.28 0L75.28-8.58L76.69-8.58ZM89.58 0L88.73-2.48L85.27-2.48L84.38 0L83.20 0L86.44-8.58L87.75-8.58L90.84 0L89.58 0ZM87-7.31L85.64-3.52L88.31-3.52L87.05-7.31L87-7.31ZM95.53-7.64L93.19-7.64L93.19-4.64L95.48-4.64Q97.27-4.64 97.27-6.19L97.27-6.19Q97.27-7.59 95.53-7.64L95.53-7.64ZM95.91-3.61L93.19-3.61L93.19 0L92.02 0L92.02-8.58L95.91-8.58Q98.34-8.48 98.44-6.19L98.44-6.19Q98.30-3.70 95.91-3.61L95.91-3.61ZM105.52-3.19L105.52-8.58L106.69-8.58L106.69-3.05Q106.55 0.05 103.17 0.14L103.17 0.14Q100.03 0.05 99.89-2.86L99.89-2.86L99.89-8.58L101.06-8.58L101.06-3.19Q101.11-0.84 103.22-0.80L103.22-0.80Q105.52-0.84 105.52-3.19L105.52-3.19Z" transform="translate(-0.5609879032258065, 8.8125)"></path></g></g></g></g></g><defs v-gra="od"></defs></svg>